<mxfile host="app.diagrams.net" modified="2023-03-05T18:16:26.867Z" agent="5.0 (Windows NT 10.0; Win64; x64) AppleWebKit/537.36 (KHTML, like Gecko) Chrome/110.0.0.0 Safari/537.36" etag="WzXql3SV5tkdIo7nHBfe" version="21.0.2" type="github">
  <diagram name="Страница 1" id="6Y43luDI59apvsy_3ZgI">
    <mxGraphModel dx="880" dy="484" grid="1" gridSize="10" guides="1" tooltips="1" connect="1" arrows="1" fold="1" page="1" pageScale="1" pageWidth="827" pageHeight="1169" math="0" shadow="0">
      <root>
        <mxCell id="0" />
        <mxCell id="1" parent="0" />
        <mxCell id="pu8A1HFBXTmiordrdZQZ-10" value="" style="edgeStyle=orthogonalEdgeStyle;rounded=0;orthogonalLoop=1;jettySize=auto;html=1;" edge="1" parent="1" source="pu8A1HFBXTmiordrdZQZ-11" target="pu8A1HFBXTmiordrdZQZ-13">
          <mxGeometry relative="1" as="geometry" />
        </mxCell>
        <mxCell id="pu8A1HFBXTmiordrdZQZ-11" value="START" style="rounded=1;whiteSpace=wrap;html=1;" vertex="1" parent="1">
          <mxGeometry x="360" y="30" width="120" height="60" as="geometry" />
        </mxCell>
        <mxCell id="pu8A1HFBXTmiordrdZQZ-12" value="" style="edgeStyle=orthogonalEdgeStyle;rounded=0;orthogonalLoop=1;jettySize=auto;html=1;" edge="1" parent="1" source="pu8A1HFBXTmiordrdZQZ-13" target="pu8A1HFBXTmiordrdZQZ-14">
          <mxGeometry relative="1" as="geometry" />
        </mxCell>
        <mxCell id="pu8A1HFBXTmiordrdZQZ-13" value="array[size]" style="shape=parallelogram;perimeter=parallelogramPerimeter;whiteSpace=wrap;html=1;fixedSize=1;" vertex="1" parent="1">
          <mxGeometry x="360" y="130" width="120" height="60" as="geometry" />
        </mxCell>
        <mxCell id="pu8A1HFBXTmiordrdZQZ-17" value="" style="edgeStyle=orthogonalEdgeStyle;rounded=0;orthogonalLoop=1;jettySize=auto;html=1;" edge="1" parent="1" source="pu8A1HFBXTmiordrdZQZ-14" target="pu8A1HFBXTmiordrdZQZ-16">
          <mxGeometry relative="1" as="geometry" />
        </mxCell>
        <mxCell id="pu8A1HFBXTmiordrdZQZ-14" value="sum=0&lt;br&gt;index=0" style="rounded=0;whiteSpace=wrap;html=1;" vertex="1" parent="1">
          <mxGeometry x="360" y="230" width="120" height="60" as="geometry" />
        </mxCell>
        <mxCell id="pu8A1HFBXTmiordrdZQZ-15" value="&lt;font style=&quot;font-size: 18px;&quot;&gt;Перенести самое большое число массива в правый край&lt;/font&gt;" style="text;html=1;strokeColor=none;fillColor=none;spacing=5;spacingTop=-20;whiteSpace=wrap;overflow=hidden;rounded=0;" vertex="1" parent="1">
          <mxGeometry x="20" y="40" width="190" height="120" as="geometry" />
        </mxCell>
        <mxCell id="pu8A1HFBXTmiordrdZQZ-32" value="" style="edgeStyle=orthogonalEdgeStyle;rounded=0;orthogonalLoop=1;jettySize=auto;html=1;" edge="1" parent="1" source="pu8A1HFBXTmiordrdZQZ-16" target="pu8A1HFBXTmiordrdZQZ-30">
          <mxGeometry relative="1" as="geometry" />
        </mxCell>
        <mxCell id="pu8A1HFBXTmiordrdZQZ-16" value="max=array[index]" style="rounded=0;whiteSpace=wrap;html=1;" vertex="1" parent="1">
          <mxGeometry x="360" y="330" width="120" height="60" as="geometry" />
        </mxCell>
        <mxCell id="pu8A1HFBXTmiordrdZQZ-22" value="" style="edgeStyle=orthogonalEdgeStyle;rounded=0;orthogonalLoop=1;jettySize=auto;html=1;" edge="1" parent="1" source="pu8A1HFBXTmiordrdZQZ-19" target="pu8A1HFBXTmiordrdZQZ-21">
          <mxGeometry relative="1" as="geometry" />
        </mxCell>
        <mxCell id="pu8A1HFBXTmiordrdZQZ-25" value="" style="edgeStyle=orthogonalEdgeStyle;rounded=0;orthogonalLoop=1;jettySize=auto;html=1;" edge="1" parent="1" source="pu8A1HFBXTmiordrdZQZ-19" target="pu8A1HFBXTmiordrdZQZ-24">
          <mxGeometry relative="1" as="geometry" />
        </mxCell>
        <mxCell id="pu8A1HFBXTmiordrdZQZ-19" value="max&amp;gt;array[index+1]" style="rhombus;whiteSpace=wrap;html=1;" vertex="1" parent="1">
          <mxGeometry x="335" y="550" width="170" height="80" as="geometry" />
        </mxCell>
        <mxCell id="pu8A1HFBXTmiordrdZQZ-29" value="" style="edgeStyle=orthogonalEdgeStyle;rounded=0;orthogonalLoop=1;jettySize=auto;html=1;entryX=0.5;entryY=1;entryDx=0;entryDy=0;" edge="1" parent="1" source="pu8A1HFBXTmiordrdZQZ-21" target="pu8A1HFBXTmiordrdZQZ-24">
          <mxGeometry relative="1" as="geometry">
            <mxPoint x="280" y="715" as="targetPoint" />
          </mxGeometry>
        </mxCell>
        <mxCell id="pu8A1HFBXTmiordrdZQZ-21" value="max=array[index+1]" style="whiteSpace=wrap;html=1;" vertex="1" parent="1">
          <mxGeometry x="360" y="685" width="120" height="60" as="geometry" />
        </mxCell>
        <mxCell id="pu8A1HFBXTmiordrdZQZ-23" value="true" style="text;html=1;strokeColor=none;fillColor=none;align=center;verticalAlign=middle;whiteSpace=wrap;rounded=0;" vertex="1" parent="1">
          <mxGeometry x="360" y="650" width="60" height="30" as="geometry" />
        </mxCell>
        <mxCell id="pu8A1HFBXTmiordrdZQZ-37" value="" style="edgeStyle=orthogonalEdgeStyle;rounded=0;orthogonalLoop=1;jettySize=auto;html=1;entryX=0;entryY=0.5;entryDx=0;entryDy=0;" edge="1" parent="1" source="pu8A1HFBXTmiordrdZQZ-24" target="pu8A1HFBXTmiordrdZQZ-30">
          <mxGeometry relative="1" as="geometry">
            <mxPoint x="230" y="480" as="targetPoint" />
            <Array as="points">
              <mxPoint x="230" y="480" />
            </Array>
          </mxGeometry>
        </mxCell>
        <mxCell id="pu8A1HFBXTmiordrdZQZ-24" value="index=index+1" style="rounded=0;whiteSpace=wrap;html=1;" vertex="1" parent="1">
          <mxGeometry x="170" y="560" width="120" height="60" as="geometry" />
        </mxCell>
        <mxCell id="pu8A1HFBXTmiordrdZQZ-26" value="false" style="text;html=1;strokeColor=none;fillColor=none;align=center;verticalAlign=middle;whiteSpace=wrap;rounded=0;" vertex="1" parent="1">
          <mxGeometry x="290" y="560" width="60" height="30" as="geometry" />
        </mxCell>
        <mxCell id="pu8A1HFBXTmiordrdZQZ-33" value="" style="edgeStyle=orthogonalEdgeStyle;rounded=0;orthogonalLoop=1;jettySize=auto;html=1;" edge="1" parent="1" source="pu8A1HFBXTmiordrdZQZ-30" target="pu8A1HFBXTmiordrdZQZ-19">
          <mxGeometry relative="1" as="geometry" />
        </mxCell>
        <mxCell id="pu8A1HFBXTmiordrdZQZ-42" value="" style="edgeStyle=orthogonalEdgeStyle;rounded=0;orthogonalLoop=1;jettySize=auto;html=1;" edge="1" parent="1" source="pu8A1HFBXTmiordrdZQZ-30" target="pu8A1HFBXTmiordrdZQZ-41">
          <mxGeometry relative="1" as="geometry" />
        </mxCell>
        <mxCell id="pu8A1HFBXTmiordrdZQZ-30" value="index&amp;lt;size" style="rhombus;whiteSpace=wrap;html=1;" vertex="1" parent="1">
          <mxGeometry x="340" y="440" width="160" height="80" as="geometry" />
        </mxCell>
        <mxCell id="pu8A1HFBXTmiordrdZQZ-34" value="true" style="text;html=1;strokeColor=none;fillColor=none;align=center;verticalAlign=middle;whiteSpace=wrap;rounded=0;" vertex="1" parent="1">
          <mxGeometry x="370" y="520" width="60" height="30" as="geometry" />
        </mxCell>
        <mxCell id="pu8A1HFBXTmiordrdZQZ-35" value="false" style="text;html=1;strokeColor=none;fillColor=none;align=center;verticalAlign=middle;whiteSpace=wrap;rounded=0;" vertex="1" parent="1">
          <mxGeometry x="500" y="450" width="60" height="30" as="geometry" />
        </mxCell>
        <mxCell id="pu8A1HFBXTmiordrdZQZ-44" value="" style="edgeStyle=orthogonalEdgeStyle;rounded=0;orthogonalLoop=1;jettySize=auto;html=1;" edge="1" parent="1" source="pu8A1HFBXTmiordrdZQZ-41" target="pu8A1HFBXTmiordrdZQZ-43">
          <mxGeometry relative="1" as="geometry" />
        </mxCell>
        <mxCell id="pu8A1HFBXTmiordrdZQZ-41" value="array[index]=max" style="whiteSpace=wrap;html=1;" vertex="1" parent="1">
          <mxGeometry x="600" y="450" width="120" height="60" as="geometry" />
        </mxCell>
        <mxCell id="pu8A1HFBXTmiordrdZQZ-43" value="FINISH" style="rounded=1;whiteSpace=wrap;html=1;" vertex="1" parent="1">
          <mxGeometry x="600" y="570" width="120" height="60" as="geometry" />
        </mxCell>
      </root>
    </mxGraphModel>
  </diagram>
</mxfile>
